<mxfile host="65bd71144e">
    <diagram id="GR2JrHCtmXe7UdemqBwp" name="Page-1">
        <mxGraphModel dx="1623" dy="563" grid="1" gridSize="10" guides="1" tooltips="1" connect="1" arrows="1" fold="1" page="1" pageScale="1" pageWidth="850" pageHeight="1100" math="0" shadow="0">
            <root>
                <mxCell id="0"/>
                <mxCell id="1" parent="0"/>
                <mxCell id="2" value="UI&lt;br&gt;System" style="whiteSpace=wrap;html=1;aspect=fixed;" parent="1" vertex="1">
                    <mxGeometry x="120" y="510" width="80" height="80" as="geometry"/>
                </mxCell>
                <mxCell id="11" style="edgeStyle=none;html=1;exitX=0.5;exitY=1;exitDx=0;exitDy=0;entryX=0.5;entryY=0;entryDx=0;entryDy=0;" parent="1" source="3" target="10" edge="1">
                    <mxGeometry relative="1" as="geometry"/>
                </mxCell>
                <mxCell id="3" value="Redux/toolkit" style="rounded=0;whiteSpace=wrap;html=1;fontStyle=0" parent="1" vertex="1">
                    <mxGeometry x="360" y="360" width="120" height="80" as="geometry"/>
                </mxCell>
                <mxCell id="16" style="edgeStyle=none;html=1;exitX=0;exitY=0.75;exitDx=0;exitDy=0;entryX=1;entryY=0.75;entryDx=0;entryDy=0;" parent="1" source="4" target="10" edge="1">
                    <mxGeometry relative="1" as="geometry"/>
                </mxCell>
                <mxCell id="4" value="Services" style="rounded=0;whiteSpace=wrap;html=1;fontStyle=0" parent="1" vertex="1">
                    <mxGeometry x="610" y="510" width="120" height="80" as="geometry"/>
                </mxCell>
                <mxCell id="13" style="edgeStyle=none;html=1;exitX=0;exitY=0.5;exitDx=0;exitDy=0;entryX=0.5;entryY=1;entryDx=0;entryDy=0;" parent="1" source="5" target="2" edge="1">
                    <mxGeometry relative="1" as="geometry">
                        <Array as="points">
                            <mxPoint x="160" y="700"/>
                        </Array>
                    </mxGeometry>
                </mxCell>
                <mxCell id="5" value="Store" style="rounded=0;whiteSpace=wrap;html=1;fontStyle=0" parent="1" vertex="1">
                    <mxGeometry x="360" y="660" width="120" height="80" as="geometry"/>
                </mxCell>
                <mxCell id="6" value="" style="endArrow=classic;html=1;exitX=0.5;exitY=0;exitDx=0;exitDy=0;entryX=0;entryY=0.5;entryDx=0;entryDy=0;" parent="1" source="2" target="3" edge="1">
                    <mxGeometry width="50" height="50" relative="1" as="geometry">
                        <mxPoint x="390" y="540" as="sourcePoint"/>
                        <mxPoint x="440" y="490" as="targetPoint"/>
                        <Array as="points">
                            <mxPoint x="160" y="400"/>
                        </Array>
                    </mxGeometry>
                </mxCell>
                <mxCell id="12" style="edgeStyle=none;html=1;exitX=0.5;exitY=1;exitDx=0;exitDy=0;entryX=0.5;entryY=0;entryDx=0;entryDy=0;" parent="1" source="10" target="5" edge="1">
                    <mxGeometry relative="1" as="geometry"/>
                </mxCell>
                <mxCell id="15" style="edgeStyle=none;html=1;exitX=1;exitY=0.25;exitDx=0;exitDy=0;entryX=0;entryY=0.25;entryDx=0;entryDy=0;" parent="1" source="10" target="4" edge="1">
                    <mxGeometry relative="1" as="geometry"/>
                </mxCell>
                <mxCell id="10" value="Reducer" style="rounded=0;whiteSpace=wrap;html=1;fontStyle=0" parent="1" vertex="1">
                    <mxGeometry x="360" y="510" width="120" height="80" as="geometry"/>
                </mxCell>
                <mxCell id="17" value="App" style="swimlane;whiteSpace=wrap;html=1;startSize=40;" parent="1" vertex="1">
                    <mxGeometry x="-660" y="335" width="470" height="430" as="geometry">
                        <mxRectangle x="-660" y="95" width="60" height="40" as="alternateBounds"/>
                    </mxGeometry>
                </mxCell>
                <mxCell id="19" value="Store" style="swimlane;whiteSpace=wrap;html=1;startSize=40;direction=east;" parent="17" vertex="1">
                    <mxGeometry x="30" y="75" width="190" height="145" as="geometry">
                        <mxRectangle x="29" y="65" width="80" height="40" as="alternateBounds"/>
                    </mxGeometry>
                </mxCell>
                <mxCell id="25" value="&lt;ul&gt;&lt;li&gt;Store.js&lt;/li&gt;&lt;li&gt;Reducers&lt;/li&gt;&lt;ul&gt;&lt;li&gt;reducer1.js&lt;/li&gt;&lt;li&gt;reducer2.js&lt;/li&gt;&lt;/ul&gt;&lt;/ul&gt;" style="text;html=1;strokeColor=none;fillColor=none;align=left;verticalAlign=middle;whiteSpace=wrap;rounded=0;" parent="19" vertex="1">
                    <mxGeometry x="10" y="50" width="170" height="80" as="geometry"/>
                </mxCell>
                <mxCell id="21" value="Services" style="swimlane;whiteSpace=wrap;html=1;startSize=40;" parent="17" vertex="1">
                    <mxGeometry x="251" y="75" width="190" height="145" as="geometry">
                        <mxRectangle x="250" y="65" width="90" height="40" as="alternateBounds"/>
                    </mxGeometry>
                </mxCell>
                <mxCell id="26" value="&lt;ul&gt;&lt;li&gt;AxiosFetch.js&lt;/li&gt;&lt;li&gt;Service name&lt;/li&gt;&lt;ul&gt;&lt;li&gt;service.js&lt;br&gt;&lt;/li&gt;&lt;/ul&gt;&lt;/ul&gt;" style="text;html=1;strokeColor=none;fillColor=none;align=left;verticalAlign=middle;whiteSpace=wrap;rounded=0;" parent="21" vertex="1">
                    <mxGeometry x="10" y="50" width="170" height="80" as="geometry"/>
                </mxCell>
                <mxCell id="22" value="Views" style="swimlane;whiteSpace=wrap;html=1;startSize=40;" parent="17" vertex="1">
                    <mxGeometry x="30" y="255" width="190" height="145" as="geometry">
                        <mxRectangle x="29" y="245" width="70" height="40" as="alternateBounds"/>
                    </mxGeometry>
                </mxCell>
                <mxCell id="28" value="&lt;ul&gt;&lt;li&gt;Layouts&lt;/li&gt;&lt;ul&gt;&lt;li&gt;layout.tsx&lt;/li&gt;&lt;/ul&gt;&lt;li&gt;Componants&lt;/li&gt;&lt;li&gt;Tools&lt;/li&gt;&lt;/ul&gt;" style="text;html=1;strokeColor=none;fillColor=none;align=left;verticalAlign=middle;whiteSpace=wrap;rounded=0;" parent="22" vertex="1">
                    <mxGeometry x="10" y="50" width="170" height="80" as="geometry"/>
                </mxCell>
                <mxCell id="23" value="Assets" style="swimlane;whiteSpace=wrap;html=1;startSize=40;" parent="17" vertex="1">
                    <mxGeometry x="251" y="255" width="190" height="145" as="geometry"/>
                </mxCell>
                <mxCell id="29" value="&lt;div&gt;URL: &quot; ~/assets/...&quot;&lt;/div&gt;&lt;ul&gt;&lt;li&gt;img_name.png&lt;/li&gt;&lt;li&gt;img_name.png&lt;/li&gt;&lt;/ul&gt;" style="text;html=1;strokeColor=none;fillColor=none;align=left;verticalAlign=middle;whiteSpace=wrap;rounded=0;" parent="23" vertex="1">
                    <mxGeometry x="10" y="50" width="170" height="80" as="geometry"/>
                </mxCell>
                <mxCell id="31" value="Action" style="text;html=1;strokeColor=none;fillColor=none;align=center;verticalAlign=middle;whiteSpace=wrap;rounded=0;" parent="1" vertex="1">
                    <mxGeometry x="220" y="365" width="60" height="30" as="geometry"/>
                </mxCell>
                <mxCell id="33" value="Subscripe" style="text;html=1;strokeColor=none;fillColor=none;align=center;verticalAlign=middle;whiteSpace=wrap;rounded=0;" parent="1" vertex="1">
                    <mxGeometry x="230" y="660" width="60" height="30" as="geometry"/>
                </mxCell>
                <mxCell id="34" value="Invoke" style="text;html=1;strokeColor=none;fillColor=none;align=center;verticalAlign=middle;whiteSpace=wrap;rounded=0;" parent="1" vertex="1">
                    <mxGeometry x="430" y="464" width="60" height="30" as="geometry"/>
                </mxCell>
                <mxCell id="35" value="Update" style="text;html=1;strokeColor=none;fillColor=none;align=center;verticalAlign=middle;whiteSpace=wrap;rounded=0;" parent="1" vertex="1">
                    <mxGeometry x="430" y="615" width="60" height="30" as="geometry"/>
                </mxCell>
                <mxCell id="36" value="Async Call" style="text;html=1;strokeColor=none;fillColor=none;align=center;verticalAlign=middle;whiteSpace=wrap;rounded=0;" parent="1" vertex="1">
                    <mxGeometry x="510" y="535" width="60" height="30" as="geometry"/>
                </mxCell>
            </root>
        </mxGraphModel>
    </diagram>
</mxfile>